<mxfile host="app.diagrams.net" modified="2022-05-15T08:41:24.029Z" agent="5.0 (Windows)" etag="iIfQ8DlFfzoJj7ZC5a2b" version="18.0.4" type="github">
  <diagram id="ftHDJsCwS-N9WV5DZKyB" name="Page-1">
    <mxGraphModel dx="868" dy="440" grid="1" gridSize="10" guides="1" tooltips="1" connect="1" arrows="1" fold="1" page="1" pageScale="1" pageWidth="850" pageHeight="1100" math="0" shadow="0">
      <root>
        <mxCell id="0" />
        <mxCell id="1" parent="0" />
        <mxCell id="4s9nhKdhcSExY_lbLFu8-13" value="" style="rounded=0;whiteSpace=wrap;html=1;strokeWidth=1;" vertex="1" parent="1">
          <mxGeometry x="880" y="30" width="450" height="990" as="geometry" />
        </mxCell>
        <mxCell id="4s9nhKdhcSExY_lbLFu8-15" value="" style="rounded=0;orthogonalLoop=1;jettySize=auto;html=1;endArrow=open;endFill=0;strokeWidth=1;fillColor=#dae8fc;strokeColor=#6c8ebf;exitX=1;exitY=0.3333333333333333;exitDx=0;exitDy=0;exitPerimeter=0;" edge="1" parent="1" source="4s9nhKdhcSExY_lbLFu8-16">
          <mxGeometry relative="1" as="geometry">
            <mxPoint x="118" y="123.969696969697" as="sourcePoint" />
            <mxPoint x="208.6647544613736" y="110.232612960398" as="targetPoint" />
          </mxGeometry>
        </mxCell>
        <mxCell id="4s9nhKdhcSExY_lbLFu8-16" value="Admin" style="shape=umlActor;verticalLabelPosition=bottom;verticalAlign=top;html=1;outlineConnect=0;strokeWidth=2;fillColor=#dae8fc;strokeColor=#6c8ebf;" vertex="1" parent="1">
          <mxGeometry x="50" y="140" width="40" height="80" as="geometry" />
        </mxCell>
        <mxCell id="4s9nhKdhcSExY_lbLFu8-18" value="update user account" style="ellipse;whiteSpace=wrap;html=1;verticalAlign=top;strokeWidth=2;fillColor=#dae8fc;strokeColor=#6c8ebf;" vertex="1" parent="1">
          <mxGeometry x="440" y="83" width="130" height="30" as="geometry" />
        </mxCell>
        <mxCell id="4s9nhKdhcSExY_lbLFu8-23" value="delete user account" style="ellipse;whiteSpace=wrap;html=1;verticalAlign=top;strokeWidth=2;fillColor=#dae8fc;strokeColor=#6c8ebf;" vertex="1" parent="1">
          <mxGeometry x="440" y="133" width="130" height="30" as="geometry" />
        </mxCell>
        <mxCell id="4s9nhKdhcSExY_lbLFu8-24" value="" style="rounded=0;orthogonalLoop=1;jettySize=auto;html=1;endArrow=open;endFill=0;strokeWidth=1;fillColor=#dae8fc;strokeColor=#6c8ebf;exitX=1;exitY=0.5;exitDx=0;exitDy=0;dashed=1;entryX=0;entryY=0.5;entryDx=0;entryDy=0;" edge="1" parent="1" source="4s9nhKdhcSExY_lbLFu8-17" target="4s9nhKdhcSExY_lbLFu8-23">
          <mxGeometry relative="1" as="geometry">
            <mxPoint x="100" y="163.33333333333337" as="sourcePoint" />
            <mxPoint x="218.6647544613736" y="120.232612960398" as="targetPoint" />
          </mxGeometry>
        </mxCell>
        <mxCell id="4s9nhKdhcSExY_lbLFu8-25" value="" style="rounded=0;orthogonalLoop=1;jettySize=auto;html=1;endArrow=open;endFill=0;strokeWidth=1;fillColor=#dae8fc;strokeColor=#6c8ebf;exitX=1;exitY=0.5;exitDx=0;exitDy=0;dashed=1;entryX=0;entryY=0.5;entryDx=0;entryDy=0;" edge="1" parent="1" source="4s9nhKdhcSExY_lbLFu8-17" target="4s9nhKdhcSExY_lbLFu8-18">
          <mxGeometry relative="1" as="geometry">
            <mxPoint x="348" y="122" as="sourcePoint" />
            <mxPoint x="435" y="165" as="targetPoint" />
          </mxGeometry>
        </mxCell>
        <mxCell id="4s9nhKdhcSExY_lbLFu8-26" value="&amp;lt;&amp;lt;include&amp;gt;&amp;gt;" style="edgeLabel;html=1;align=center;verticalAlign=middle;resizable=0;points=[];rotation=-5;" vertex="1" connectable="0" parent="4s9nhKdhcSExY_lbLFu8-25">
          <mxGeometry x="-0.2426" y="-1" relative="1" as="geometry">
            <mxPoint x="3" y="-13" as="offset" />
          </mxGeometry>
        </mxCell>
        <mxCell id="4s9nhKdhcSExY_lbLFu8-27" value="&amp;lt;&amp;lt;include&amp;gt;&amp;gt;" style="edgeLabel;html=1;align=center;verticalAlign=middle;resizable=0;points=[];rotation=25;" vertex="1" connectable="0" parent="1">
          <mxGeometry x="387.9738991587062" y="138.35015931936982" as="geometry" />
        </mxCell>
        <mxCell id="4s9nhKdhcSExY_lbLFu8-28" style="edgeStyle=none;rounded=0;orthogonalLoop=1;jettySize=auto;html=1;exitX=0.5;exitY=1;exitDx=0;exitDy=0;dashed=1;endArrow=open;endFill=0;strokeWidth=2;" edge="1" parent="1" source="4s9nhKdhcSExY_lbLFu8-23" target="4s9nhKdhcSExY_lbLFu8-23">
          <mxGeometry relative="1" as="geometry" />
        </mxCell>
        <mxCell id="4s9nhKdhcSExY_lbLFu8-30" value="" style="rounded=0;orthogonalLoop=1;jettySize=auto;html=1;endArrow=open;endFill=0;strokeWidth=1;fillColor=#dae8fc;strokeColor=#6c8ebf;exitX=1;exitY=0.3333333333333333;exitDx=0;exitDy=0;exitPerimeter=0;entryX=0;entryY=0.5;entryDx=0;entryDy=0;" edge="1" parent="1" source="4s9nhKdhcSExY_lbLFu8-16" target="4s9nhKdhcSExY_lbLFu8-29">
          <mxGeometry relative="1" as="geometry">
            <mxPoint x="100" y="163.33333333333337" as="sourcePoint" />
            <mxPoint x="218.6647544613736" y="120.232612960398" as="targetPoint" />
          </mxGeometry>
        </mxCell>
        <mxCell id="4s9nhKdhcSExY_lbLFu8-31" value="Receptionist" style="shape=umlActor;verticalLabelPosition=bottom;verticalAlign=top;html=1;outlineConnect=0;strokeWidth=2;fillColor=#dae8fc;strokeColor=#6c8ebf;" vertex="1" parent="1">
          <mxGeometry x="50" y="246" width="40" height="80" as="geometry" />
        </mxCell>
        <mxCell id="4s9nhKdhcSExY_lbLFu8-33" value="" style="rounded=0;orthogonalLoop=1;jettySize=auto;html=1;endArrow=open;endFill=0;strokeWidth=1;fillColor=#dae8fc;strokeColor=#6c8ebf;exitX=1;exitY=0.3333333333333333;exitDx=0;exitDy=0;exitPerimeter=0;entryX=0;entryY=0.5;entryDx=0;entryDy=0;" edge="1" parent="1" source="4s9nhKdhcSExY_lbLFu8-31" target="4s9nhKdhcSExY_lbLFu8-34">
          <mxGeometry relative="1" as="geometry">
            <mxPoint x="90" y="279.66666666666663" as="sourcePoint" />
            <mxPoint x="208.6647544613736" y="223.232612960398" as="targetPoint" />
          </mxGeometry>
        </mxCell>
        <mxCell id="4s9nhKdhcSExY_lbLFu8-37" value="update client data" style="ellipse;whiteSpace=wrap;html=1;verticalAlign=top;strokeWidth=2;fillColor=#dae8fc;strokeColor=#6c8ebf;" vertex="1" parent="1">
          <mxGeometry x="440" y="179" width="130" height="30" as="geometry" />
        </mxCell>
        <mxCell id="4s9nhKdhcSExY_lbLFu8-38" value="delete client data" style="ellipse;whiteSpace=wrap;html=1;verticalAlign=top;strokeWidth=2;fillColor=#dae8fc;strokeColor=#6c8ebf;" vertex="1" parent="1">
          <mxGeometry x="440" y="218" width="130" height="30" as="geometry" />
        </mxCell>
        <mxCell id="4s9nhKdhcSExY_lbLFu8-39" value="" style="rounded=0;orthogonalLoop=1;jettySize=auto;html=1;endArrow=open;endFill=0;strokeWidth=1;fillColor=#dae8fc;strokeColor=#6c8ebf;exitX=1;exitY=0.5;exitDx=0;exitDy=0;dashed=1;entryX=0;entryY=0.5;entryDx=0;entryDy=0;" edge="1" parent="1" target="4s9nhKdhcSExY_lbLFu8-38" source="4s9nhKdhcSExY_lbLFu8-34">
          <mxGeometry relative="1" as="geometry">
            <mxPoint x="338" y="202" as="sourcePoint" />
            <mxPoint x="218.6647544613736" y="210.232612960398" as="targetPoint" />
          </mxGeometry>
        </mxCell>
        <mxCell id="4s9nhKdhcSExY_lbLFu8-40" value="" style="rounded=0;orthogonalLoop=1;jettySize=auto;html=1;endArrow=open;endFill=0;strokeWidth=1;fillColor=#dae8fc;strokeColor=#6c8ebf;exitX=0.946;exitY=0.2;exitDx=0;exitDy=0;dashed=1;entryX=0;entryY=0.5;entryDx=0;entryDy=0;exitPerimeter=0;" edge="1" parent="1" target="4s9nhKdhcSExY_lbLFu8-37" source="4s9nhKdhcSExY_lbLFu8-34">
          <mxGeometry relative="1" as="geometry">
            <mxPoint x="338" y="202" as="sourcePoint" />
            <mxPoint x="435" y="255" as="targetPoint" />
          </mxGeometry>
        </mxCell>
        <mxCell id="4s9nhKdhcSExY_lbLFu8-41" value="&amp;lt;&amp;lt;include&amp;gt;&amp;gt;" style="edgeLabel;html=1;align=center;verticalAlign=middle;resizable=0;points=[];" vertex="1" connectable="0" parent="4s9nhKdhcSExY_lbLFu8-40">
          <mxGeometry x="-0.2426" y="-1" relative="1" as="geometry">
            <mxPoint x="3" y="-13" as="offset" />
          </mxGeometry>
        </mxCell>
        <mxCell id="4s9nhKdhcSExY_lbLFu8-43" style="edgeStyle=none;rounded=0;orthogonalLoop=1;jettySize=auto;html=1;exitX=0.5;exitY=1;exitDx=0;exitDy=0;dashed=1;endArrow=open;endFill=0;strokeWidth=2;" edge="1" parent="1" source="4s9nhKdhcSExY_lbLFu8-38" target="4s9nhKdhcSExY_lbLFu8-38">
          <mxGeometry relative="1" as="geometry" />
        </mxCell>
        <mxCell id="4s9nhKdhcSExY_lbLFu8-44" value="Doctor" style="shape=umlActor;verticalLabelPosition=bottom;verticalAlign=top;html=1;outlineConnect=0;strokeWidth=2;fillColor=#dae8fc;strokeColor=#6c8ebf;" vertex="1" parent="1">
          <mxGeometry x="50" y="370" width="40" height="80" as="geometry" />
        </mxCell>
        <mxCell id="4s9nhKdhcSExY_lbLFu8-49" value="" style="rounded=0;orthogonalLoop=1;jettySize=auto;html=1;endArrow=open;endFill=0;strokeWidth=1;fillColor=#dae8fc;strokeColor=#6c8ebf;exitX=1;exitY=0.3333333333333333;exitDx=0;exitDy=0;exitPerimeter=0;entryX=0;entryY=0.5;entryDx=0;entryDy=0;" edge="1" parent="1" target="4s9nhKdhcSExY_lbLFu8-50" source="4s9nhKdhcSExY_lbLFu8-44">
          <mxGeometry relative="1" as="geometry">
            <mxPoint x="110" y="356.66666666666663" as="sourcePoint" />
            <mxPoint x="228.6647544613736" y="333.232612960398" as="targetPoint" />
          </mxGeometry>
        </mxCell>
        <mxCell id="4s9nhKdhcSExY_lbLFu8-55" value="update maternal attribute" style="ellipse;whiteSpace=wrap;html=1;verticalAlign=top;strokeWidth=2;fillColor=#dae8fc;strokeColor=#6c8ebf;" vertex="1" parent="1">
          <mxGeometry x="440" y="264" width="155" height="30" as="geometry" />
        </mxCell>
        <mxCell id="4s9nhKdhcSExY_lbLFu8-56" value="" style="rounded=0;orthogonalLoop=1;jettySize=auto;html=1;endArrow=open;endFill=0;strokeWidth=1;fillColor=#dae8fc;strokeColor=#6c8ebf;exitX=1;exitY=0.5;exitDx=0;exitDy=0;dashed=1;entryX=0;entryY=0.5;entryDx=0;entryDy=0;" edge="1" parent="1" target="4s9nhKdhcSExY_lbLFu8-55" source="4s9nhKdhcSExY_lbLFu8-50">
          <mxGeometry relative="1" as="geometry">
            <mxPoint x="339.98" y="308" as="sourcePoint" />
            <mxPoint x="445" y="345" as="targetPoint" />
          </mxGeometry>
        </mxCell>
        <mxCell id="4s9nhKdhcSExY_lbLFu8-57" value="&amp;lt;&amp;lt;include&amp;gt;&amp;gt;" style="edgeLabel;html=1;align=center;verticalAlign=middle;resizable=0;points=[];" vertex="1" connectable="0" parent="4s9nhKdhcSExY_lbLFu8-56">
          <mxGeometry x="-0.2426" y="-1" relative="1" as="geometry">
            <mxPoint x="25" y="-9" as="offset" />
          </mxGeometry>
        </mxCell>
        <mxCell id="4s9nhKdhcSExY_lbLFu8-58" value="" style="rounded=0;orthogonalLoop=1;jettySize=auto;html=1;endArrow=open;endFill=0;strokeWidth=1;fillColor=#dae8fc;strokeColor=#6c8ebf;exitX=1;exitY=0.3333333333333333;exitDx=0;exitDy=0;exitPerimeter=0;entryX=0;entryY=0.5;entryDx=0;entryDy=0;" edge="1" parent="1" source="4s9nhKdhcSExY_lbLFu8-44" target="4s9nhKdhcSExY_lbLFu8-53">
          <mxGeometry relative="1" as="geometry">
            <mxPoint x="100" y="377.66666666666663" as="sourcePoint" />
            <mxPoint x="210" y="420" as="targetPoint" />
          </mxGeometry>
        </mxCell>
        <mxCell id="4s9nhKdhcSExY_lbLFu8-59" value="" style="rounded=0;orthogonalLoop=1;jettySize=auto;html=1;endArrow=open;endFill=0;strokeWidth=1;fillColor=#dae8fc;strokeColor=#6c8ebf;exitX=1;exitY=0.3333333333333333;exitDx=0;exitDy=0;exitPerimeter=0;entryX=0;entryY=0.5;entryDx=0;entryDy=0;" edge="1" parent="1" source="4s9nhKdhcSExY_lbLFu8-44" target="4s9nhKdhcSExY_lbLFu8-52">
          <mxGeometry relative="1" as="geometry">
            <mxPoint x="110" y="387.66666666666663" as="sourcePoint" />
            <mxPoint x="228" y="325" as="targetPoint" />
          </mxGeometry>
        </mxCell>
        <mxCell id="4s9nhKdhcSExY_lbLFu8-60" value="" style="rounded=0;orthogonalLoop=1;jettySize=auto;html=1;endArrow=open;endFill=0;strokeWidth=1;fillColor=#dae8fc;strokeColor=#6c8ebf;exitX=1;exitY=0.3333333333333333;exitDx=0;exitDy=0;exitPerimeter=0;entryX=0;entryY=0.5;entryDx=0;entryDy=0;" edge="1" parent="1" source="4s9nhKdhcSExY_lbLFu8-44" target="4s9nhKdhcSExY_lbLFu8-54">
          <mxGeometry relative="1" as="geometry">
            <mxPoint x="120" y="397.66666666666663" as="sourcePoint" />
            <mxPoint x="238" y="335" as="targetPoint" />
          </mxGeometry>
        </mxCell>
        <mxCell id="4s9nhKdhcSExY_lbLFu8-61" value="" style="rounded=0;orthogonalLoop=1;jettySize=auto;html=1;endArrow=open;endFill=0;strokeWidth=1;fillColor=#dae8fc;strokeColor=#6c8ebf;exitX=1;exitY=0.3333333333333333;exitDx=0;exitDy=0;exitPerimeter=0;entryX=0;entryY=0.5;entryDx=0;entryDy=0;" edge="1" parent="1" source="4s9nhKdhcSExY_lbLFu8-44" target="4s9nhKdhcSExY_lbLFu8-51">
          <mxGeometry relative="1" as="geometry">
            <mxPoint x="130" y="407.66666666666663" as="sourcePoint" />
            <mxPoint x="248" y="345" as="targetPoint" />
          </mxGeometry>
        </mxCell>
        <mxCell id="4s9nhKdhcSExY_lbLFu8-62" value="Midwife nurse" style="shape=umlActor;verticalLabelPosition=bottom;verticalAlign=top;html=1;outlineConnect=0;strokeWidth=2;fillColor=#dae8fc;strokeColor=#6c8ebf;" vertex="1" parent="1">
          <mxGeometry x="690" y="406" width="40" height="80" as="geometry" />
        </mxCell>
        <mxCell id="4s9nhKdhcSExY_lbLFu8-63" value="" style="rounded=0;orthogonalLoop=1;jettySize=auto;html=1;endArrow=open;endFill=0;strokeWidth=1;fillColor=#dae8fc;strokeColor=#6c8ebf;exitX=0;exitY=0.3333333333333333;exitDx=0;exitDy=0;exitPerimeter=0;entryX=1;entryY=0.5;entryDx=0;entryDy=0;" edge="1" parent="1" source="4s9nhKdhcSExY_lbLFu8-62" target="4s9nhKdhcSExY_lbLFu8-50">
          <mxGeometry relative="1" as="geometry">
            <mxPoint x="700" y="324.66666666666663" as="sourcePoint" />
            <mxPoint x="818" y="262" as="targetPoint" />
          </mxGeometry>
        </mxCell>
        <mxCell id="4s9nhKdhcSExY_lbLFu8-64" value="" style="rounded=0;orthogonalLoop=1;jettySize=auto;html=1;endArrow=open;endFill=0;strokeWidth=1;fillColor=#dae8fc;strokeColor=#6c8ebf;exitX=0;exitY=0.3333333333333333;exitDx=0;exitDy=0;exitPerimeter=0;entryX=1;entryY=0.5;entryDx=0;entryDy=0;" edge="1" parent="1" source="4s9nhKdhcSExY_lbLFu8-62" target="4s9nhKdhcSExY_lbLFu8-53">
          <mxGeometry relative="1" as="geometry">
            <mxPoint x="700" y="326.66666666666663" as="sourcePoint" />
            <mxPoint x="338" y="424" as="targetPoint" />
          </mxGeometry>
        </mxCell>
        <mxCell id="4s9nhKdhcSExY_lbLFu8-65" value="" style="rounded=0;orthogonalLoop=1;jettySize=auto;html=1;endArrow=open;endFill=0;strokeWidth=1;fillColor=#dae8fc;strokeColor=#6c8ebf;exitX=0;exitY=0.3333333333333333;exitDx=0;exitDy=0;exitPerimeter=0;entryX=1;entryY=0.5;entryDx=0;entryDy=0;" edge="1" parent="1" source="4s9nhKdhcSExY_lbLFu8-62" target="4s9nhKdhcSExY_lbLFu8-52">
          <mxGeometry relative="1" as="geometry">
            <mxPoint x="720" y="347.66666666666663" as="sourcePoint" />
            <mxPoint x="818" y="345" as="targetPoint" />
          </mxGeometry>
        </mxCell>
        <mxCell id="4s9nhKdhcSExY_lbLFu8-67" value="" style="rounded=0;orthogonalLoop=1;jettySize=auto;html=1;endArrow=open;endFill=0;strokeWidth=1;fillColor=#dae8fc;strokeColor=#6c8ebf;exitX=0;exitY=0.3333333333333333;exitDx=0;exitDy=0;exitPerimeter=0;entryX=1;entryY=0.5;entryDx=0;entryDy=0;" edge="1" parent="1" source="4s9nhKdhcSExY_lbLFu8-62" target="4s9nhKdhcSExY_lbLFu8-51">
          <mxGeometry relative="1" as="geometry">
            <mxPoint x="700" y="326.66666666666663" as="sourcePoint" />
            <mxPoint x="818" y="304" as="targetPoint" />
          </mxGeometry>
        </mxCell>
        <mxCell id="4s9nhKdhcSExY_lbLFu8-69" value="Client" style="shape=umlActor;verticalLabelPosition=bottom;verticalAlign=top;html=1;outlineConnect=0;strokeWidth=2;fillColor=#dae8fc;strokeColor=#6c8ebf;" vertex="1" parent="1">
          <mxGeometry x="690" y="530" width="40" height="80" as="geometry" />
        </mxCell>
        <mxCell id="4s9nhKdhcSExY_lbLFu8-70" value="" style="rounded=0;orthogonalLoop=1;jettySize=auto;html=1;endArrow=open;endFill=0;strokeWidth=1;fillColor=#dae8fc;strokeColor=#6c8ebf;exitX=0;exitY=0.3333333333333333;exitDx=0;exitDy=0;exitPerimeter=0;entryX=1;entryY=0.5;entryDx=0;entryDy=0;" edge="1" parent="1" source="4s9nhKdhcSExY_lbLFu8-69" target="4s9nhKdhcSExY_lbLFu8-68">
          <mxGeometry relative="1" as="geometry">
            <mxPoint x="670" y="337.66666666666663" as="sourcePoint" />
            <mxPoint x="550.9619407771256" y="410.3933982822016" as="targetPoint" />
          </mxGeometry>
        </mxCell>
        <mxCell id="4s9nhKdhcSExY_lbLFu8-72" value="" style="rounded=0;orthogonalLoop=1;jettySize=auto;html=1;endArrow=open;endFill=0;strokeWidth=1;fillColor=#dae8fc;strokeColor=#6c8ebf;exitX=0;exitY=0.3333333333333333;exitDx=0;exitDy=0;exitPerimeter=0;entryX=0.985;entryY=0.3;entryDx=0;entryDy=0;entryPerimeter=0;" edge="1" parent="1" source="4s9nhKdhcSExY_lbLFu8-69" target="4s9nhKdhcSExY_lbLFu8-71">
          <mxGeometry relative="1" as="geometry">
            <mxPoint x="670" y="466.66666666666663" as="sourcePoint" />
            <mxPoint x="570" y="421" as="targetPoint" />
          </mxGeometry>
        </mxCell>
        <mxCell id="4s9nhKdhcSExY_lbLFu8-73" value="" style="rounded=0;orthogonalLoop=1;jettySize=auto;html=1;endArrow=open;endFill=0;strokeWidth=1;fillColor=#dae8fc;strokeColor=#6c8ebf;entryX=0.969;entryY=0.3;entryDx=0;entryDy=0;entryPerimeter=0;exitX=0;exitY=0.3333333333333333;exitDx=0;exitDy=0;exitPerimeter=0;" edge="1" parent="1" source="4s9nhKdhcSExY_lbLFu8-62" target="4s9nhKdhcSExY_lbLFu8-71">
          <mxGeometry relative="1" as="geometry">
            <mxPoint x="640" y="370" as="sourcePoint" />
            <mxPoint x="580" y="431" as="targetPoint" />
            <Array as="points" />
          </mxGeometry>
        </mxCell>
        <mxCell id="4s9nhKdhcSExY_lbLFu8-74" value="" style="rounded=0;orthogonalLoop=1;jettySize=auto;html=1;endArrow=open;endFill=0;strokeWidth=1;fillColor=#dae8fc;strokeColor=#6c8ebf;exitX=1;exitY=0.3333333333333333;exitDx=0;exitDy=0;exitPerimeter=0;entryX=0;entryY=0.5;entryDx=0;entryDy=0;" edge="1" parent="1" source="4s9nhKdhcSExY_lbLFu8-44" target="4s9nhKdhcSExY_lbLFu8-71">
          <mxGeometry relative="1" as="geometry">
            <mxPoint x="100" y="377.66666666666663" as="sourcePoint" />
            <mxPoint x="218" y="475" as="targetPoint" />
          </mxGeometry>
        </mxCell>
        <mxCell id="4s9nhKdhcSExY_lbLFu8-75" value="Pharmacist" style="shape=umlActor;verticalLabelPosition=bottom;verticalAlign=top;html=1;outlineConnect=0;strokeWidth=2;fillColor=#dae8fc;strokeColor=#6c8ebf;" vertex="1" parent="1">
          <mxGeometry x="50" y="490" width="40" height="80" as="geometry" />
        </mxCell>
        <mxCell id="4s9nhKdhcSExY_lbLFu8-76" value="" style="rounded=0;orthogonalLoop=1;jettySize=auto;html=1;endArrow=open;endFill=0;strokeWidth=1;fillColor=#dae8fc;strokeColor=#6c8ebf;exitX=1;exitY=0.3333333333333333;exitDx=0;exitDy=0;exitPerimeter=0;entryX=0;entryY=0.5;entryDx=0;entryDy=0;" edge="1" parent="1" source="4s9nhKdhcSExY_lbLFu8-75" target="4s9nhKdhcSExY_lbLFu8-77">
          <mxGeometry relative="1" as="geometry">
            <mxPoint x="110" y="615.6666666666666" as="sourcePoint" />
            <mxPoint x="228.6647544613736" y="592.232612960398" as="targetPoint" />
          </mxGeometry>
        </mxCell>
        <mxCell id="4s9nhKdhcSExY_lbLFu8-82" value="update dispensed drug" style="ellipse;whiteSpace=wrap;html=1;verticalAlign=top;strokeWidth=2;fillColor=#dae8fc;strokeColor=#6c8ebf;" vertex="1" parent="1">
          <mxGeometry x="447" y="630" width="155" height="30" as="geometry" />
        </mxCell>
        <mxCell id="4s9nhKdhcSExY_lbLFu8-83" value="" style="rounded=0;orthogonalLoop=1;jettySize=auto;html=1;endArrow=open;endFill=0;strokeWidth=1;fillColor=#dae8fc;strokeColor=#6c8ebf;exitX=1;exitY=0.5;exitDx=0;exitDy=0;dashed=1;entryX=0;entryY=0.5;entryDx=0;entryDy=0;" edge="1" parent="1" source="4s9nhKdhcSExY_lbLFu8-78" target="4s9nhKdhcSExY_lbLFu8-82">
          <mxGeometry relative="1" as="geometry">
            <mxPoint x="339.98" y="567" as="sourcePoint" />
            <mxPoint x="445" y="604" as="targetPoint" />
          </mxGeometry>
        </mxCell>
        <mxCell id="4s9nhKdhcSExY_lbLFu8-84" value="&amp;lt;&amp;lt;include&amp;gt;&amp;gt;" style="edgeLabel;html=1;align=center;verticalAlign=middle;resizable=0;points=[];" vertex="1" connectable="0" parent="4s9nhKdhcSExY_lbLFu8-83">
          <mxGeometry x="-0.2426" y="-1" relative="1" as="geometry">
            <mxPoint x="12" y="6" as="offset" />
          </mxGeometry>
        </mxCell>
        <mxCell id="4s9nhKdhcSExY_lbLFu8-85" value="" style="rounded=0;orthogonalLoop=1;jettySize=auto;html=1;endArrow=open;endFill=0;strokeWidth=1;fillColor=#dae8fc;strokeColor=#6c8ebf;exitX=1;exitY=0.3333333333333333;exitDx=0;exitDy=0;exitPerimeter=0;entryX=0;entryY=0.5;entryDx=0;entryDy=0;" edge="1" parent="1" source="4s9nhKdhcSExY_lbLFu8-102" target="4s9nhKdhcSExY_lbLFu8-80">
          <mxGeometry relative="1" as="geometry">
            <mxPoint x="100" y="636.6666666666666" as="sourcePoint" />
            <mxPoint x="210" y="679" as="targetPoint" />
          </mxGeometry>
        </mxCell>
        <mxCell id="4s9nhKdhcSExY_lbLFu8-86" value="" style="rounded=0;orthogonalLoop=1;jettySize=auto;html=1;endArrow=open;endFill=0;strokeWidth=1;fillColor=#dae8fc;strokeColor=#6c8ebf;entryX=0;entryY=0.5;entryDx=0;entryDy=0;exitX=1;exitY=0.3333333333333333;exitDx=0;exitDy=0;exitPerimeter=0;" edge="1" parent="1" source="4s9nhKdhcSExY_lbLFu8-102" target="4s9nhKdhcSExY_lbLFu8-79">
          <mxGeometry relative="1" as="geometry">
            <mxPoint x="110" y="646.6666666666666" as="sourcePoint" />
            <mxPoint x="228" y="584" as="targetPoint" />
          </mxGeometry>
        </mxCell>
        <mxCell id="4s9nhKdhcSExY_lbLFu8-87" value="" style="rounded=0;orthogonalLoop=1;jettySize=auto;html=1;endArrow=open;endFill=0;strokeWidth=1;fillColor=#dae8fc;strokeColor=#6c8ebf;entryX=0;entryY=0.5;entryDx=0;entryDy=0;exitX=1;exitY=0.3333333333333333;exitDx=0;exitDy=0;exitPerimeter=0;" edge="1" parent="1" source="4s9nhKdhcSExY_lbLFu8-106" target="4s9nhKdhcSExY_lbLFu8-81">
          <mxGeometry relative="1" as="geometry">
            <mxPoint x="80" y="840" as="sourcePoint" />
            <mxPoint x="238" y="594" as="targetPoint" />
          </mxGeometry>
        </mxCell>
        <mxCell id="4s9nhKdhcSExY_lbLFu8-88" value="" style="rounded=0;orthogonalLoop=1;jettySize=auto;html=1;endArrow=open;endFill=0;strokeWidth=1;fillColor=#dae8fc;strokeColor=#6c8ebf;exitX=1;exitY=0.3333333333333333;exitDx=0;exitDy=0;exitPerimeter=0;entryX=0;entryY=0.5;entryDx=0;entryDy=0;" edge="1" parent="1" source="4s9nhKdhcSExY_lbLFu8-75" target="4s9nhKdhcSExY_lbLFu8-78">
          <mxGeometry relative="1" as="geometry">
            <mxPoint x="130" y="666.6666666666666" as="sourcePoint" />
            <mxPoint x="248" y="604" as="targetPoint" />
          </mxGeometry>
        </mxCell>
        <mxCell id="4s9nhKdhcSExY_lbLFu8-89" value="Radiologist" style="shape=umlActor;verticalLabelPosition=bottom;verticalAlign=top;html=1;outlineConnect=0;strokeWidth=2;fillColor=#dae8fc;strokeColor=#6c8ebf;" vertex="1" parent="1">
          <mxGeometry x="690" y="646" width="40" height="80" as="geometry" />
        </mxCell>
        <mxCell id="4s9nhKdhcSExY_lbLFu8-91" value="" style="rounded=0;orthogonalLoop=1;jettySize=auto;html=1;endArrow=open;endFill=0;strokeWidth=1;fillColor=#dae8fc;strokeColor=#6c8ebf;exitX=0;exitY=0.3333333333333333;exitDx=0;exitDy=0;exitPerimeter=0;entryX=1;entryY=0.5;entryDx=0;entryDy=0;" edge="1" parent="1" source="4s9nhKdhcSExY_lbLFu8-89" target="4s9nhKdhcSExY_lbLFu8-80">
          <mxGeometry relative="1" as="geometry">
            <mxPoint x="700" y="585.6666666666666" as="sourcePoint" />
            <mxPoint x="338" y="683" as="targetPoint" />
          </mxGeometry>
        </mxCell>
        <mxCell id="4s9nhKdhcSExY_lbLFu8-92" value="" style="rounded=0;orthogonalLoop=1;jettySize=auto;html=1;endArrow=open;endFill=0;strokeWidth=1;fillColor=#dae8fc;strokeColor=#6c8ebf;exitX=0;exitY=0.3333333333333333;exitDx=0;exitDy=0;exitPerimeter=0;entryX=1;entryY=0.5;entryDx=0;entryDy=0;" edge="1" parent="1" source="4s9nhKdhcSExY_lbLFu8-89" target="4s9nhKdhcSExY_lbLFu8-79">
          <mxGeometry relative="1" as="geometry">
            <mxPoint x="720" y="606.6666666666666" as="sourcePoint" />
            <mxPoint x="818" y="604" as="targetPoint" />
          </mxGeometry>
        </mxCell>
        <mxCell id="4s9nhKdhcSExY_lbLFu8-95" value="generate report" style="ellipse;whiteSpace=wrap;html=1;verticalAlign=top;strokeWidth=2;fillColor=#dae8fc;strokeColor=#6c8ebf;" vertex="1" parent="1">
          <mxGeometry x="430" y="913" width="130" height="30" as="geometry" />
        </mxCell>
        <mxCell id="4s9nhKdhcSExY_lbLFu8-96" value="data clerk" style="shape=umlActor;verticalLabelPosition=bottom;verticalAlign=top;html=1;outlineConnect=0;strokeWidth=2;fillColor=#dae8fc;strokeColor=#6c8ebf;" vertex="1" parent="1">
          <mxGeometry x="690" y="790" width="40" height="80" as="geometry" />
        </mxCell>
        <mxCell id="4s9nhKdhcSExY_lbLFu8-97" value="" style="rounded=0;orthogonalLoop=1;jettySize=auto;html=1;endArrow=open;endFill=0;strokeWidth=1;fillColor=#dae8fc;strokeColor=#6c8ebf;exitX=0;exitY=0.3333333333333333;exitDx=0;exitDy=0;exitPerimeter=0;entryX=1;entryY=0.5;entryDx=0;entryDy=0;" edge="1" parent="1" source="4s9nhKdhcSExY_lbLFu8-96" target="4s9nhKdhcSExY_lbLFu8-95">
          <mxGeometry relative="1" as="geometry">
            <mxPoint x="670" y="614.6666666666666" as="sourcePoint" />
            <mxPoint x="550.9619407771256" y="687.3933982822016" as="targetPoint" />
          </mxGeometry>
        </mxCell>
        <mxCell id="4s9nhKdhcSExY_lbLFu8-99" value="" style="rounded=0;orthogonalLoop=1;jettySize=auto;html=1;endArrow=open;endFill=0;strokeWidth=1;fillColor=#dae8fc;strokeColor=#6c8ebf;exitX=0;exitY=0.3333333333333333;exitDx=0;exitDy=0;exitPerimeter=0;entryX=1;entryY=0.5;entryDx=0;entryDy=0;" edge="1" parent="1" source="4s9nhKdhcSExY_lbLFu8-96" target="4s9nhKdhcSExY_lbLFu8-110">
          <mxGeometry relative="1" as="geometry">
            <mxPoint x="670" y="743.6666666666666" as="sourcePoint" />
            <mxPoint x="390" y="938" as="targetPoint" />
          </mxGeometry>
        </mxCell>
        <mxCell id="4s9nhKdhcSExY_lbLFu8-101" value="" style="rounded=0;orthogonalLoop=1;jettySize=auto;html=1;endArrow=open;endFill=0;strokeWidth=1;fillColor=#dae8fc;strokeColor=#6c8ebf;entryX=0;entryY=0.5;entryDx=0;entryDy=0;exitX=1;exitY=0.3333333333333333;exitDx=0;exitDy=0;exitPerimeter=0;" edge="1" parent="1" source="4s9nhKdhcSExY_lbLFu8-106" target="4s9nhKdhcSExY_lbLFu8-98">
          <mxGeometry relative="1" as="geometry">
            <mxPoint x="80" y="840" as="sourcePoint" />
            <mxPoint x="218" y="734" as="targetPoint" />
          </mxGeometry>
        </mxCell>
        <mxCell id="4s9nhKdhcSExY_lbLFu8-102" value="Lab Technician " style="shape=umlActor;verticalLabelPosition=bottom;verticalAlign=top;html=1;outlineConnect=0;strokeWidth=2;fillColor=#dae8fc;strokeColor=#6c8ebf;" vertex="1" parent="1">
          <mxGeometry x="50" y="626" width="40" height="80" as="geometry" />
        </mxCell>
        <mxCell id="4s9nhKdhcSExY_lbLFu8-103" value="update lab result" style="ellipse;whiteSpace=wrap;html=1;verticalAlign=top;strokeWidth=2;fillColor=#dae8fc;strokeColor=#6c8ebf;" vertex="1" parent="1">
          <mxGeometry x="447" y="740" width="155" height="30" as="geometry" />
        </mxCell>
        <mxCell id="4s9nhKdhcSExY_lbLFu8-104" value="" style="rounded=0;orthogonalLoop=1;jettySize=auto;html=1;endArrow=open;endFill=0;strokeWidth=1;fillColor=#dae8fc;strokeColor=#6c8ebf;exitX=1;exitY=0.5;exitDx=0;exitDy=0;dashed=1;entryX=0;entryY=0.5;entryDx=0;entryDy=0;" edge="1" parent="1" target="4s9nhKdhcSExY_lbLFu8-103" source="4s9nhKdhcSExY_lbLFu8-80">
          <mxGeometry relative="1" as="geometry">
            <mxPoint x="350" y="644" as="sourcePoint" />
            <mxPoint x="457" y="644" as="targetPoint" />
          </mxGeometry>
        </mxCell>
        <mxCell id="4s9nhKdhcSExY_lbLFu8-105" value="&amp;lt;&amp;lt;include&amp;gt;&amp;gt;" style="edgeLabel;html=1;align=center;verticalAlign=middle;resizable=0;points=[];" vertex="1" connectable="0" parent="4s9nhKdhcSExY_lbLFu8-104">
          <mxGeometry x="-0.2426" y="-1" relative="1" as="geometry">
            <mxPoint x="20" y="11" as="offset" />
          </mxGeometry>
        </mxCell>
        <mxCell id="4s9nhKdhcSExY_lbLFu8-106" value="Gynecologist " style="shape=umlActor;verticalLabelPosition=bottom;verticalAlign=top;html=1;outlineConnect=0;strokeWidth=2;fillColor=#dae8fc;strokeColor=#6c8ebf;" vertex="1" parent="1">
          <mxGeometry x="50" y="760" width="40" height="80" as="geometry" />
        </mxCell>
        <mxCell id="4s9nhKdhcSExY_lbLFu8-107" value="update result" style="ellipse;whiteSpace=wrap;html=1;verticalAlign=top;strokeWidth=2;fillColor=#dae8fc;strokeColor=#6c8ebf;" vertex="1" parent="1">
          <mxGeometry x="447" y="793" width="155" height="30" as="geometry" />
        </mxCell>
        <mxCell id="4s9nhKdhcSExY_lbLFu8-108" value="" style="rounded=0;orthogonalLoop=1;jettySize=auto;html=1;endArrow=open;endFill=0;strokeWidth=1;fillColor=#dae8fc;strokeColor=#6c8ebf;exitX=1;exitY=0.5;exitDx=0;exitDy=0;dashed=1;entryX=0;entryY=0.5;entryDx=0;entryDy=0;" edge="1" parent="1" target="4s9nhKdhcSExY_lbLFu8-107" source="4s9nhKdhcSExY_lbLFu8-98">
          <mxGeometry relative="1" as="geometry">
            <mxPoint x="348" y="694" as="sourcePoint" />
            <mxPoint x="467" y="654" as="targetPoint" />
          </mxGeometry>
        </mxCell>
        <mxCell id="4s9nhKdhcSExY_lbLFu8-109" value="&amp;lt;&amp;lt;include&amp;gt;&amp;gt;" style="edgeLabel;html=1;align=center;verticalAlign=middle;resizable=0;points=[];" vertex="1" connectable="0" parent="4s9nhKdhcSExY_lbLFu8-108">
          <mxGeometry x="-0.2426" y="-1" relative="1" as="geometry">
            <mxPoint x="20" y="6" as="offset" />
          </mxGeometry>
        </mxCell>
        <mxCell id="4s9nhKdhcSExY_lbLFu8-110" value="send report" style="ellipse;whiteSpace=wrap;html=1;verticalAlign=top;strokeWidth=2;fillColor=#dae8fc;strokeColor=#6c8ebf;" vertex="1" parent="1">
          <mxGeometry x="431" y="963" width="130" height="30" as="geometry" />
        </mxCell>
        <mxCell id="4s9nhKdhcSExY_lbLFu8-113" value="HIMS Officer" style="shape=umlActor;verticalLabelPosition=bottom;verticalAlign=top;html=1;outlineConnect=0;strokeWidth=2;fillColor=#dae8fc;strokeColor=#6c8ebf;" vertex="1" parent="1">
          <mxGeometry x="50" y="890" width="40" height="80" as="geometry" />
        </mxCell>
        <mxCell id="4s9nhKdhcSExY_lbLFu8-114" value="" style="rounded=0;orthogonalLoop=1;jettySize=auto;html=1;endArrow=open;endFill=0;strokeWidth=1;fillColor=#dae8fc;strokeColor=#6c8ebf;exitX=1;exitY=0.3333333333333333;exitDx=0;exitDy=0;exitPerimeter=0;entryX=0;entryY=0.5;entryDx=0;entryDy=0;" edge="1" parent="1" source="4s9nhKdhcSExY_lbLFu8-113" target="4s9nhKdhcSExY_lbLFu8-112">
          <mxGeometry relative="1" as="geometry">
            <mxPoint x="50" y="915.6666666666667" as="sourcePoint" />
            <mxPoint x="339" y="944" as="targetPoint" />
          </mxGeometry>
        </mxCell>
        <mxCell id="4s9nhKdhcSExY_lbLFu8-116" value="" style="rounded=0;orthogonalLoop=1;jettySize=auto;html=1;endArrow=open;endFill=0;strokeWidth=1;fillColor=#dae8fc;strokeColor=#6c8ebf;exitX=1;exitY=0.3333333333333333;exitDx=0;exitDy=0;exitPerimeter=0;entryX=0;entryY=0.5;entryDx=0;entryDy=0;" edge="1" parent="1" source="4s9nhKdhcSExY_lbLFu8-113" target="4s9nhKdhcSExY_lbLFu8-120">
          <mxGeometry relative="1" as="geometry">
            <mxPoint x="50" y="917.6666666666667" as="sourcePoint" />
            <mxPoint x="340" y="996" as="targetPoint" />
          </mxGeometry>
        </mxCell>
        <mxCell id="4s9nhKdhcSExY_lbLFu8-121" value="&lt;font style=&quot;font-size: 13px;&quot;&gt;&lt;b&gt;MHEMR Use Case Diagram&lt;/b&gt;&lt;/font&gt;" style="text;html=1;strokeColor=none;fillColor=none;align=center;verticalAlign=middle;whiteSpace=wrap;rounded=0;" vertex="1" parent="1">
          <mxGeometry x="280" y="40" width="180" height="40" as="geometry" />
        </mxCell>
        <mxCell id="4s9nhKdhcSExY_lbLFu8-122" value="" style="rounded=0;orthogonalLoop=1;jettySize=auto;html=1;endArrow=open;endFill=0;strokeWidth=1;fillColor=#dae8fc;strokeColor=#6c8ebf;exitX=0;exitY=0.3333333333333333;exitDx=0;exitDy=0;exitPerimeter=0;entryX=1;entryY=0.5;entryDx=0;entryDy=0;" edge="1" parent="1" source="4s9nhKdhcSExY_lbLFu8-62" target="4s9nhKdhcSExY_lbLFu8-68">
          <mxGeometry relative="1" as="geometry">
            <mxPoint x="700" y="461.66666666666663" as="sourcePoint" />
            <mxPoint x="345.04999999999995" y="497" as="targetPoint" />
          </mxGeometry>
        </mxCell>
        <mxCell id="4s9nhKdhcSExY_lbLFu8-17" value="create user account" style="ellipse;whiteSpace=wrap;html=1;verticalAlign=top;strokeWidth=2;fillColor=#dae8fc;strokeColor=#6c8ebf;" vertex="1" parent="1">
          <mxGeometry x="210" y="100" width="130" height="30" as="geometry" />
        </mxCell>
        <mxCell id="4s9nhKdhcSExY_lbLFu8-29" value="post blogs" style="ellipse;whiteSpace=wrap;html=1;verticalAlign=top;strokeWidth=2;fillColor=#dae8fc;strokeColor=#6c8ebf;" vertex="1" parent="1">
          <mxGeometry x="210" y="139" width="130" height="30" as="geometry" />
        </mxCell>
        <mxCell id="4s9nhKdhcSExY_lbLFu8-34" value="register client" style="ellipse;whiteSpace=wrap;html=1;verticalAlign=top;strokeWidth=2;fillColor=#dae8fc;strokeColor=#6c8ebf;" vertex="1" parent="1">
          <mxGeometry x="210" y="187" width="130" height="30" as="geometry" />
        </mxCell>
        <mxCell id="4s9nhKdhcSExY_lbLFu8-50" value="add maternal attribute" style="ellipse;whiteSpace=wrap;html=1;verticalAlign=top;strokeWidth=2;fillColor=#dae8fc;strokeColor=#6c8ebf;" vertex="1" parent="1">
          <mxGeometry x="210" y="229" width="130" height="30" as="geometry" />
        </mxCell>
        <mxCell id="4s9nhKdhcSExY_lbLFu8-51" value="send lab request" style="ellipse;whiteSpace=wrap;html=1;verticalAlign=top;strokeWidth=2;fillColor=#dae8fc;strokeColor=#6c8ebf;" vertex="1" parent="1">
          <mxGeometry x="210" y="271" width="130" height="30" as="geometry" />
        </mxCell>
        <mxCell id="4s9nhKdhcSExY_lbLFu8-52" value="view lab request" style="ellipse;whiteSpace=wrap;html=1;verticalAlign=top;strokeWidth=2;fillColor=#dae8fc;strokeColor=#6c8ebf;" vertex="1" parent="1">
          <mxGeometry x="210" y="313" width="130" height="30" as="geometry" />
        </mxCell>
        <mxCell id="4s9nhKdhcSExY_lbLFu8-53" value="send prescription" style="ellipse;whiteSpace=wrap;html=1;verticalAlign=top;strokeWidth=2;fillColor=#dae8fc;strokeColor=#6c8ebf;" vertex="1" parent="1">
          <mxGeometry x="210" y="363" width="130" height="30" as="geometry" />
        </mxCell>
        <mxCell id="4s9nhKdhcSExY_lbLFu8-54" value="send refer" style="ellipse;whiteSpace=wrap;html=1;verticalAlign=top;strokeWidth=2;fillColor=#dae8fc;strokeColor=#6c8ebf;" vertex="1" parent="1">
          <mxGeometry x="210" y="413" width="130" height="30" as="geometry" />
        </mxCell>
        <mxCell id="4s9nhKdhcSExY_lbLFu8-68" value="add appointment" style="ellipse;whiteSpace=wrap;html=1;verticalAlign=top;strokeWidth=2;fillColor=#dae8fc;strokeColor=#6c8ebf;" vertex="1" parent="1">
          <mxGeometry x="210" y="507" width="130" height="30" as="geometry" />
        </mxCell>
        <mxCell id="4s9nhKdhcSExY_lbLFu8-71" value="view client history" style="ellipse;whiteSpace=wrap;html=1;verticalAlign=top;strokeWidth=2;fillColor=#dae8fc;strokeColor=#6c8ebf;" vertex="1" parent="1">
          <mxGeometry x="210" y="461" width="130" height="30" as="geometry" />
        </mxCell>
        <mxCell id="4s9nhKdhcSExY_lbLFu8-77" value="view prescription" style="ellipse;whiteSpace=wrap;html=1;verticalAlign=top;strokeWidth=2;fillColor=#dae8fc;strokeColor=#6c8ebf;" vertex="1" parent="1">
          <mxGeometry x="210" y="575" width="130" height="30" as="geometry" />
        </mxCell>
        <mxCell id="4s9nhKdhcSExY_lbLFu8-78" value="add dispensed drug " style="ellipse;whiteSpace=wrap;html=1;verticalAlign=top;strokeWidth=2;fillColor=#dae8fc;strokeColor=#6c8ebf;" vertex="1" parent="1">
          <mxGeometry x="210" y="633" width="130" height="30" as="geometry" />
        </mxCell>
        <mxCell id="4s9nhKdhcSExY_lbLFu8-79" value="view request" style="ellipse;whiteSpace=wrap;html=1;verticalAlign=top;strokeWidth=2;fillColor=#dae8fc;strokeColor=#6c8ebf;" vertex="1" parent="1">
          <mxGeometry x="210" y="679" width="130" height="30" as="geometry" />
        </mxCell>
        <mxCell id="4s9nhKdhcSExY_lbLFu8-80" value="send lab result" style="ellipse;whiteSpace=wrap;html=1;verticalAlign=top;strokeWidth=2;fillColor=#dae8fc;strokeColor=#6c8ebf;" vertex="1" parent="1">
          <mxGeometry x="210" y="726" width="130" height="30" as="geometry" />
        </mxCell>
        <mxCell id="4s9nhKdhcSExY_lbLFu8-81" value="view refer" style="ellipse;whiteSpace=wrap;html=1;verticalAlign=top;strokeWidth=2;fillColor=#dae8fc;strokeColor=#6c8ebf;" vertex="1" parent="1">
          <mxGeometry x="210" y="773" width="130" height="30" as="geometry" />
        </mxCell>
        <mxCell id="4s9nhKdhcSExY_lbLFu8-98" value="send result" style="ellipse;whiteSpace=wrap;html=1;verticalAlign=top;strokeWidth=2;fillColor=#dae8fc;strokeColor=#6c8ebf;" vertex="1" parent="1">
          <mxGeometry x="210" y="823" width="130" height="30" as="geometry" />
        </mxCell>
        <mxCell id="4s9nhKdhcSExY_lbLFu8-112" value="view report" style="ellipse;whiteSpace=wrap;html=1;verticalAlign=top;strokeWidth=2;fillColor=#dae8fc;strokeColor=#6c8ebf;" vertex="1" parent="1">
          <mxGeometry x="210" y="913" width="130" height="30" as="geometry" />
        </mxCell>
        <mxCell id="4s9nhKdhcSExY_lbLFu8-120" value="send feedback" style="ellipse;whiteSpace=wrap;html=1;verticalAlign=top;strokeWidth=2;fillColor=#dae8fc;strokeColor=#6c8ebf;" vertex="1" parent="1">
          <mxGeometry x="210" y="963" width="130" height="30" as="geometry" />
        </mxCell>
        <mxCell id="4s9nhKdhcSExY_lbLFu8-125" value="&amp;lt;&amp;lt;include&amp;gt;&amp;gt;" style="edgeLabel;html=1;align=center;verticalAlign=middle;resizable=0;points=[];" vertex="1" connectable="0" parent="1">
          <mxGeometry x="402.4239838299127" y="209.1578753454903" as="geometry" />
        </mxCell>
        <mxCell id="4s9nhKdhcSExY_lbLFu8-126" value="search" style="ellipse;whiteSpace=wrap;html=1;verticalAlign=top;strokeWidth=2;fillColor=#dae8fc;strokeColor=#6c8ebf;" vertex="1" parent="1">
          <mxGeometry x="447" y="570" width="130" height="30" as="geometry" />
        </mxCell>
        <mxCell id="4s9nhKdhcSExY_lbLFu8-127" value="" style="rounded=0;orthogonalLoop=1;jettySize=auto;html=1;endArrow=open;endFill=0;strokeWidth=1;fillColor=#dae8fc;strokeColor=#6c8ebf;exitX=1;exitY=0.3333333333333333;exitDx=0;exitDy=0;exitPerimeter=0;entryX=0;entryY=0.5;entryDx=0;entryDy=0;" edge="1" parent="1" source="4s9nhKdhcSExY_lbLFu8-44" target="4s9nhKdhcSExY_lbLFu8-126">
          <mxGeometry relative="1" as="geometry">
            <mxPoint x="100" y="406.66666666666663" as="sourcePoint" />
            <mxPoint x="220" y="486" as="targetPoint" />
            <Array as="points">
              <mxPoint x="200" y="540" />
            </Array>
          </mxGeometry>
        </mxCell>
        <mxCell id="4s9nhKdhcSExY_lbLFu8-128" value="" style="rounded=0;orthogonalLoop=1;jettySize=auto;html=1;endArrow=open;endFill=0;strokeWidth=1;fillColor=#dae8fc;strokeColor=#6c8ebf;exitX=1;exitY=0.3333333333333333;exitDx=0;exitDy=0;exitPerimeter=0;entryX=0;entryY=0.5;entryDx=0;entryDy=0;" edge="1" parent="1" source="4s9nhKdhcSExY_lbLFu8-75" target="4s9nhKdhcSExY_lbLFu8-126">
          <mxGeometry relative="1" as="geometry">
            <mxPoint x="100" y="526.6666666666666" as="sourcePoint" />
            <mxPoint x="220" y="600" as="targetPoint" />
            <Array as="points">
              <mxPoint x="200" y="560" />
            </Array>
          </mxGeometry>
        </mxCell>
        <mxCell id="4s9nhKdhcSExY_lbLFu8-129" value="" style="rounded=0;orthogonalLoop=1;jettySize=auto;html=1;endArrow=open;endFill=0;strokeWidth=1;fillColor=#dae8fc;strokeColor=#6c8ebf;entryX=0.104;entryY=0.8;entryDx=0;entryDy=0;exitX=1;exitY=0.3333333333333333;exitDx=0;exitDy=0;exitPerimeter=0;entryPerimeter=0;" edge="1" parent="1" source="4s9nhKdhcSExY_lbLFu8-102" target="4s9nhKdhcSExY_lbLFu8-126">
          <mxGeometry relative="1" as="geometry">
            <mxPoint x="100" y="662.6666666666667" as="sourcePoint" />
            <mxPoint x="220" y="704" as="targetPoint" />
            <Array as="points">
              <mxPoint x="160" y="630" />
            </Array>
          </mxGeometry>
        </mxCell>
        <mxCell id="4s9nhKdhcSExY_lbLFu8-130" value="" style="rounded=0;orthogonalLoop=1;jettySize=auto;html=1;endArrow=open;endFill=0;strokeWidth=1;fillColor=#dae8fc;strokeColor=#6c8ebf;exitX=0;exitY=0.3333333333333333;exitDx=0;exitDy=0;exitPerimeter=0;entryX=1;entryY=0;entryDx=0;entryDy=0;" edge="1" parent="1" source="4s9nhKdhcSExY_lbLFu8-62" target="4s9nhKdhcSExY_lbLFu8-126">
          <mxGeometry relative="1" as="geometry">
            <mxPoint x="700" y="442.66666666666663" as="sourcePoint" />
            <mxPoint x="350" y="532" as="targetPoint" />
          </mxGeometry>
        </mxCell>
        <mxCell id="4s9nhKdhcSExY_lbLFu8-131" value="" style="rounded=0;orthogonalLoop=1;jettySize=auto;html=1;endArrow=open;endFill=0;strokeWidth=1;fillColor=#dae8fc;strokeColor=#6c8ebf;exitX=0;exitY=0.3333333333333333;exitDx=0;exitDy=0;exitPerimeter=0;entryX=1;entryY=0.5;entryDx=0;entryDy=0;" edge="1" parent="1" source="4s9nhKdhcSExY_lbLFu8-69" target="4s9nhKdhcSExY_lbLFu8-126">
          <mxGeometry relative="1" as="geometry">
            <mxPoint x="700" y="682.6666666666667" as="sourcePoint" />
            <mxPoint x="350" y="704" as="targetPoint" />
          </mxGeometry>
        </mxCell>
        <mxCell id="4s9nhKdhcSExY_lbLFu8-132" value="" style="rounded=0;orthogonalLoop=1;jettySize=auto;html=1;endArrow=open;endFill=0;strokeWidth=1;fillColor=#dae8fc;strokeColor=#6c8ebf;exitX=0;exitY=0.3333333333333333;exitDx=0;exitDy=0;exitPerimeter=0;entryX=1;entryY=1;entryDx=0;entryDy=0;" edge="1" parent="1" source="4s9nhKdhcSExY_lbLFu8-89" target="4s9nhKdhcSExY_lbLFu8-126">
          <mxGeometry relative="1" as="geometry">
            <mxPoint x="700" y="566.6666666666666" as="sourcePoint" />
            <mxPoint x="592.5" y="595" as="targetPoint" />
          </mxGeometry>
        </mxCell>
        <mxCell id="4s9nhKdhcSExY_lbLFu8-133" value="" style="rounded=0;orthogonalLoop=1;jettySize=auto;html=1;endArrow=open;endFill=0;strokeWidth=1;fillColor=#dae8fc;strokeColor=#6c8ebf;entryX=1;entryY=0.5;entryDx=0;entryDy=0;exitX=0;exitY=0.3333333333333333;exitDx=0;exitDy=0;exitPerimeter=0;" edge="1" parent="1" source="4s9nhKdhcSExY_lbLFu8-96" target="4s9nhKdhcSExY_lbLFu8-134">
          <mxGeometry relative="1" as="geometry">
            <mxPoint x="690" y="850" as="sourcePoint" />
            <mxPoint x="602.5" y="605" as="targetPoint" />
            <Array as="points" />
          </mxGeometry>
        </mxCell>
        <mxCell id="4s9nhKdhcSExY_lbLFu8-134" value="search" style="ellipse;whiteSpace=wrap;html=1;verticalAlign=top;strokeWidth=2;fillColor=#dae8fc;strokeColor=#6c8ebf;" vertex="1" parent="1">
          <mxGeometry x="210" y="870" width="130" height="30" as="geometry" />
        </mxCell>
        <mxCell id="4s9nhKdhcSExY_lbLFu8-135" value="" style="rounded=0;orthogonalLoop=1;jettySize=auto;html=1;endArrow=open;endFill=0;strokeWidth=1;fillColor=#dae8fc;strokeColor=#6c8ebf;exitX=1;exitY=0.3333333333333333;exitDx=0;exitDy=0;exitPerimeter=0;entryX=0;entryY=0.5;entryDx=0;entryDy=0;" edge="1" parent="1" source="4s9nhKdhcSExY_lbLFu8-113" target="4s9nhKdhcSExY_lbLFu8-134">
          <mxGeometry relative="1" as="geometry">
            <mxPoint x="100" y="926.6666666666667" as="sourcePoint" />
            <mxPoint x="220" y="938" as="targetPoint" />
          </mxGeometry>
        </mxCell>
        <mxCell id="4s9nhKdhcSExY_lbLFu8-136" value="" style="rounded=0;orthogonalLoop=1;jettySize=auto;html=1;endArrow=open;endFill=0;strokeWidth=1;fillColor=#dae8fc;strokeColor=#6c8ebf;exitX=1;exitY=0.3333333333333333;exitDx=0;exitDy=0;exitPerimeter=0;entryX=0;entryY=0;entryDx=0;entryDy=0;" edge="1" parent="1" source="4s9nhKdhcSExY_lbLFu8-106" target="4s9nhKdhcSExY_lbLFu8-134">
          <mxGeometry relative="1" as="geometry">
            <mxPoint x="110" y="936.6666666666667" as="sourcePoint" />
            <mxPoint x="190" y="880" as="targetPoint" />
          </mxGeometry>
        </mxCell>
      </root>
    </mxGraphModel>
  </diagram>
</mxfile>
